<svg width="944" height="485" viewBox="0 0 944 485" fill="none" xmlns="http://www.w3.org/2000/svg">
<path d="M263.363 86.5216C263.604 100.305 249.463 111.712 249.463 111.712C249.463 111.712 234.932 100.805 234.692 87.0221C234.451 73.2392 248.592 61.8313 248.592 61.8313C248.592 61.8313 263.123 72.7387 263.363 86.5216Z" fill="#27AE60"/>
<path d="M262.326 27.1237C262.567 40.9066 248.426 52.3144 248.426 52.3144C248.426 52.3144 233.896 41.4071 233.655 27.6241C233.579 13.8383 247.72 2.43049 247.72 2.43049C247.72 2.43049 262.086 13.3407 262.326 27.1237Z" fill="#27AE60"/>
<path d="M261.18 140.887C261.367 151.553 250.478 160.442 250.478 160.442C250.478 160.442 239.286 151.938 239.1 141.273C238.914 130.608 249.802 121.718 249.802 121.718C249.802 121.718 260.994 130.222 261.18 140.887Z" fill="#27AE60"/>
<path d="M296.864 107.767C290.318 119.862 272.406 122.965 272.406 122.965C272.406 122.965 265.193 106.35 271.74 94.2538C278.286 82.1579 296.198 79.055 296.198 79.055C296.198 79.055 303.411 95.6706 296.864 107.767Z" fill="#F2C94C"/>
<path d="M327.991 49.6127C321.444 61.7087 303.532 64.8116 303.532 64.8116C303.532 64.8116 296.319 48.196 302.866 36.1C309.413 24.0041 327.325 20.9012 327.325 20.9012C327.325 20.9012 334.538 37.5168 327.991 49.6127Z" fill="#F2C94C"/>
<path d="M317.193 139.253C305.62 146.677 288.372 140.577 288.372 140.577C288.372 140.577 290.202 122.655 301.775 115.231C313.348 107.807 330.597 113.907 330.597 113.907C330.597 113.907 328.931 131.826 317.193 139.253Z" fill="#EB5757"/>
<path d="M173.384 172.456C163.176 173.127 154.268 163.27 154.268 163.27C154.268 163.27 161.821 152.141 172.028 151.471C182.236 150.8 191.144 160.657 191.144 160.657C191.144 160.657 183.591 171.785 173.384 172.456Z" fill="#666EE8"/>
<path d="M321.889 172.162C332.113 172.476 340.672 162.314 340.672 162.314C340.672 162.314 332.735 151.456 322.511 151.142C312.286 150.828 303.727 160.989 303.727 160.989C303.727 160.989 311.661 171.684 321.889 172.162Z" fill="#EB5757"/>
<path d="M178.783 141.833C166.796 134.985 164.012 117.143 164.012 117.143C164.012 117.143 180.705 110.286 192.854 116.968C204.838 123.652 207.625 141.658 207.625 141.658C207.625 141.658 190.767 148.518 178.783 141.833Z" fill="#666EE8"/>
<path d="M123.172 109.813C111.184 102.965 108.401 85.123 108.401 85.123C108.401 85.123 125.093 78.2663 137.242 84.9478C149.227 91.6322 152.013 109.638 152.013 109.638C152.013 109.638 135.156 116.498 123.172 109.813Z" fill="#666EE8"/>
<path d="M128.99 150.416C116.054 145.882 110.151 128.752 110.151 128.752C110.151 128.752 125.477 119.128 138.413 123.663C151.516 128.358 157.254 145.492 157.254 145.492C157.254 145.492 141.929 155.115 128.99 150.416Z" fill="#666EE8"/>
<path d="M156.48 91.6696C146.91 81.6605 149.567 63.8878 149.567 63.8878C149.567 63.8878 167.669 62.2587 177.071 72.1067C186.641 82.1159 183.985 99.8886 183.985 99.8886C183.985 99.8886 166.047 101.515 156.48 91.6696Z" fill="#56CCF2"/>
<path d="M206.028 59.62C200.861 46.9078 209.984 31.3201 209.984 31.3201C209.984 31.3201 227.381 36.4328 232.547 49.145C237.714 61.8571 228.426 77.4477 228.426 77.4477C228.426 77.4477 211.033 72.4991 206.028 59.62Z" fill="#56CCF2"/>
<path d="M364.284 145.817C376.536 139.531 379.852 121.746 379.852 121.746C379.852 121.746 363.404 114.319 351.152 120.606C338.9 126.893 335.584 144.677 335.584 144.677C335.584 144.677 352.032 152.104 364.284 145.817Z" fill="#EB5757"/>
<path d="M372.793 104.471C385.045 98.1845 388.361 80.4003 388.361 80.4003C388.361 80.4003 371.913 72.9732 359.661 79.2599C347.408 85.5467 344.093 103.331 344.093 103.331C344.093 103.331 360.54 110.758 372.793 104.471Z" fill="#EB5757"/>
<path d="M339.048 88.1548C347.927 77.4953 343.996 60.0018 343.996 60.0018C343.996 60.0018 325.856 59.4978 317.141 70.1544C308.262 80.8138 312.196 98.4715 312.196 98.4715C312.196 98.4715 330.33 98.6473 339.048 88.1548Z" fill="#F2C94C"/>
<path d="M290.394 58.1472C295.114 45.2624 285.453 30.0026 285.453 30.0026C285.453 30.0026 268.245 35.7194 263.525 48.6041C258.806 61.4888 268.467 76.7486 268.467 76.7486C268.467 76.7486 285.842 71.1931 290.394 58.1472Z" fill="#F2C94C"/>
<path d="M201.137 109.93C193.684 98.4064 199.647 81.2325 199.647 81.2325C199.647 81.2325 217.642 82.888 225.099 94.5754C232.552 106.099 226.589 123.273 226.589 123.273C226.589 123.273 208.591 121.453 201.137 109.93Z" fill="#56CCF2"/>
<path d="M167.787 50.1113C160.33 38.424 166.297 21.4142 166.297 21.4142C166.297 21.4142 184.292 23.0697 191.748 34.757C199.202 46.2803 193.238 63.4542 193.238 63.4542C193.238 63.4542 175.24 61.6346 167.787 50.1113Z" fill="#56CCF2"/>
<path d="M0 471.479V433.521H10.9587C14.3361 433.521 17.3225 434.251 19.9177 435.711C22.513 437.171 24.5127 439.248 25.917 441.942C27.3391 444.636 28.059 447.729 28.0768 451.223V453.647C28.0768 457.227 27.3658 460.364 25.9437 463.058C24.5394 465.752 22.5219 467.82 19.8911 469.263C17.278 470.705 14.2295 471.444 10.7454 471.479H0ZM5.11941 437.64V467.386H10.5055C14.4517 467.386 17.518 466.186 19.7044 463.788C21.9086 461.39 23.0107 457.975 23.0107 453.543V451.327C23.0107 447.017 21.9708 443.671 19.8911 441.29C17.8291 438.892 14.8961 437.675 11.0921 437.64H5.11941Z" fill="#4F1313"/>
<path d="M48.9736 471.479H43.8542V433.521H48.9736V471.479Z" fill="#4F1313"/>
<path d="M77.4429 454.559C73.0522 453.326 69.8526 451.814 67.844 450.023C65.8531 448.216 64.8576 445.991 64.8576 443.35C64.8576 440.36 66.0753 437.892 68.5105 435.946C70.9636 433.982 74.1455 433 78.0561 433C80.7225 433 83.0955 433.504 85.1753 434.512C87.2728 435.52 88.8904 436.91 90.0281 438.683C91.1835 440.456 91.7612 442.394 91.7612 444.497H86.6151C86.6151 442.203 85.8686 440.404 84.3754 439.1C82.8822 437.779 80.7758 437.119 78.0561 437.119C75.532 437.119 73.5589 437.666 72.1368 438.761C70.7325 439.839 70.0304 441.342 70.0304 443.271C70.0304 444.818 70.697 446.13 72.0301 447.208C73.3811 448.268 75.6653 449.241 78.8827 450.128C82.1179 451.014 84.642 451.996 86.4552 453.074C88.2861 454.134 89.637 455.376 90.508 456.801C91.3968 458.227 91.8412 459.904 91.8412 461.833C91.8412 464.909 90.6147 467.377 88.1616 469.237C85.7086 471.079 82.4289 472 78.3228 472C75.6564 472 73.1678 471.505 70.8569 470.514C68.5461 469.506 66.7596 468.133 65.4976 466.395C64.2533 464.657 63.6311 462.684 63.6311 460.477H68.7772C68.7772 462.771 69.6393 464.588 71.3635 465.926C73.1056 467.247 75.4253 467.907 78.3228 467.907C81.0247 467.907 83.0955 467.368 84.5354 466.291C85.9752 465.213 86.6951 463.745 86.6951 461.885C86.6951 460.025 86.0285 458.592 84.6954 457.584C83.3622 456.558 80.9447 455.55 77.4429 454.559Z" fill="#4F1313"/>
<path d="M134.629 459.434C134.149 463.449 132.629 466.551 130.069 468.741C127.527 470.914 124.141 472 119.911 472C115.324 472 111.645 470.392 108.872 467.177C106.117 463.962 104.739 459.66 104.739 454.273V450.623C104.739 447.095 105.379 443.993 106.659 441.316C107.956 438.64 109.787 436.589 112.151 435.164C114.516 433.721 117.253 433 120.364 433C124.488 433 127.794 434.13 130.283 436.389C132.771 438.631 134.22 441.742 134.629 445.722H129.483C129.038 442.698 128.07 440.508 126.576 439.152C125.101 437.797 123.03 437.119 120.364 437.119C117.093 437.119 114.524 438.301 112.658 440.664C110.809 443.028 109.885 446.391 109.885 450.753V454.429C109.885 458.548 110.765 461.824 112.525 464.257C114.284 466.691 116.746 467.907 119.911 467.907C122.755 467.907 124.932 467.281 126.443 466.03C127.972 464.761 128.985 462.563 129.483 459.434H134.629Z" fill="#4F1313"/>
<path d="M179.15 453.725C179.15 457.445 178.51 460.695 177.23 463.475C175.95 466.239 174.137 468.35 171.79 469.81C169.444 471.27 166.707 472 163.578 472C160.521 472 157.81 471.27 155.446 469.81C153.081 468.333 151.242 466.239 149.926 463.527C148.629 460.799 147.962 457.644 147.927 454.064V451.327C147.927 447.677 148.575 444.453 149.873 441.655C151.171 438.857 153.001 436.719 155.366 435.242C157.748 433.747 160.467 433 163.525 433C166.635 433 169.373 433.739 171.737 435.216C174.119 436.676 175.95 438.805 177.23 441.603C178.51 444.384 179.15 447.625 179.15 451.327V453.725ZM174.057 451.275C174.057 446.773 173.133 443.324 171.284 440.925C169.435 438.509 166.849 437.301 163.525 437.301C160.29 437.301 157.739 438.509 155.872 440.925C154.024 443.324 153.073 446.66 153.019 450.936V453.725C153.019 458.088 153.952 461.52 155.819 464.023C157.703 466.508 160.29 467.751 163.578 467.751C166.884 467.751 169.444 466.578 171.257 464.231C173.07 461.868 174.004 458.487 174.057 454.09V451.275Z" fill="#4F1313"/>
<path d="M206.739 464.831L217.831 433.521H223.43L209.032 471.479H204.499L190.128 433.521H195.7L206.739 464.831Z" fill="#4F1313"/>
<path d="M258.246 453.934H241.421V467.386H260.965V471.479H236.301V433.521H260.699V437.64H241.421V449.841H258.246V453.934Z" fill="#4F1313"/>
<path d="M289.221 456.124H280.102V471.479H274.956V433.521H287.808C292.181 433.521 295.54 434.495 297.887 436.441C300.251 438.388 301.433 441.221 301.433 444.94C301.433 447.303 300.775 449.363 299.46 451.118C298.162 452.874 296.349 454.186 294.021 455.055L303.14 471.166V471.479H297.647L289.221 456.124ZM280.102 452.031H287.968C290.51 452.031 292.528 451.388 294.021 450.102C295.532 448.816 296.287 447.095 296.287 444.94C296.287 442.594 295.567 440.795 294.127 439.543C292.705 438.292 290.643 437.658 287.941 437.64H280.102V452.031Z" fill="#4F1313"/>
<path d="M379.848 471.479V433.521H390.806C394.184 433.521 397.17 434.251 399.765 435.711C402.361 437.171 404.36 439.248 405.765 441.942C407.187 444.636 407.907 447.729 407.924 451.223V453.647C407.924 457.227 407.213 460.364 405.791 463.058C404.387 465.752 402.37 467.82 399.739 469.263C397.126 470.705 394.077 471.444 390.593 471.479H379.848ZM384.967 437.64V467.386H390.353C394.299 467.386 397.366 466.186 399.552 463.788C401.756 461.39 402.858 457.975 402.858 453.543V451.327C402.858 447.017 401.818 443.671 399.739 441.29C397.677 438.892 394.744 437.675 390.94 437.64H384.967Z" fill="#4F1313"/>
<path d="M445.273 453.934H428.448V467.386H447.992V471.479H423.329V433.521H447.726V437.64H428.448V449.841H445.273V453.934Z" fill="#4F1313"/>
<path d="M467.129 456.619V471.479H462.01V433.521H476.328C480.577 433.521 483.901 434.582 486.301 436.702C488.718 438.822 489.927 441.629 489.927 445.122C489.927 448.807 488.745 451.648 486.38 453.647C484.034 455.628 480.666 456.619 476.275 456.619H467.129ZM467.129 452.526H476.328C479.066 452.526 481.163 451.9 482.621 450.649C484.079 449.38 484.807 447.555 484.807 445.174C484.807 442.915 484.079 441.108 482.621 439.752C481.163 438.396 479.164 437.693 476.622 437.64H467.129V452.526Z" fill="#4F1313"/>
<path d="M509.25 467.386H527.648V471.479H504.104V433.521H509.25V467.386Z" fill="#4F1313"/>
<path d="M569.236 453.725C569.236 457.445 568.596 460.695 567.316 463.475C566.036 466.239 564.223 468.35 561.877 469.81C559.531 471.27 556.793 472 553.664 472C550.607 472 547.896 471.27 545.532 469.81C543.168 468.333 541.328 466.239 540.013 463.527C538.715 460.799 538.049 457.644 538.013 454.064V451.327C538.013 447.677 538.662 444.453 539.959 441.655C541.257 438.857 543.088 436.719 545.452 435.242C547.834 433.747 550.554 433 553.611 433C556.722 433 559.459 433.739 561.824 435.216C564.206 436.676 566.036 438.805 567.316 441.603C568.596 444.384 569.236 447.625 569.236 451.327V453.725ZM564.143 451.275C564.143 446.773 563.219 443.324 561.37 440.925C559.522 438.509 556.935 437.301 553.611 437.301C550.376 437.301 547.825 438.509 545.959 440.925C544.11 443.324 543.159 446.66 543.106 450.936V453.725C543.106 458.088 544.039 461.52 545.905 464.023C547.79 466.508 550.376 467.751 553.664 467.751C556.971 467.751 559.531 466.578 561.344 464.231C563.157 461.868 564.09 458.487 564.143 454.09V451.275Z" fill="#4F1313"/>
<path d="M595.226 452.578L605.358 433.521H611.17L597.785 457.323V471.479H592.666V457.323L579.281 433.521H585.147L595.226 452.578Z" fill="#4F1313"/>
<path d="M709.343 453.934H692.518V467.386H712.062V471.479H687.398V433.521H711.796V437.64H692.518V449.841H709.343V453.934Z" fill="#4F1313"/>
<path d="M755.917 471.479H750.77L731.226 442.229V471.479H726.08V433.521H731.226L750.824 462.902V433.521H755.917V471.479Z" fill="#4F1313"/>
<path d="M801.317 466.499C800.002 468.342 798.162 469.723 795.798 470.644C793.451 471.548 790.714 472 787.585 472C784.421 472 781.613 471.279 779.16 469.836C776.707 468.376 774.805 466.308 773.454 463.632C772.121 460.955 771.436 457.853 771.401 454.325V451.014C771.401 445.296 772.76 440.864 775.48 437.719C778.218 434.573 782.057 433 786.999 433C791.052 433 794.314 434.017 796.784 436.05C799.255 438.066 800.766 440.934 801.317 444.653H796.198C795.238 439.63 792.18 437.119 787.026 437.119C783.595 437.119 780.991 438.301 779.213 440.664C777.453 443.011 776.565 446.417 776.547 450.884V453.986C776.547 458.244 777.542 461.633 779.533 464.153C781.524 466.656 784.217 467.907 787.612 467.907C789.532 467.907 791.212 467.699 792.652 467.281C794.091 466.864 795.282 466.16 796.224 465.17V456.645H787.239V452.578H801.317V466.499Z" fill="#4F1313"/>
<path d="M838.959 461.572H822.694L819.041 471.479H813.762L828.587 433.521H833.066L847.918 471.479H842.665L838.959 461.572ZM824.24 457.453H837.439L830.826 439.7L824.24 457.453Z" fill="#4F1313"/>
<path d="M889.132 466.499C887.817 468.342 885.977 469.723 883.613 470.644C881.266 471.548 878.529 472 875.4 472C872.236 472 869.428 471.279 866.975 469.836C864.522 468.376 862.62 466.308 861.269 463.632C859.935 460.955 859.251 457.853 859.216 454.325V451.014C859.216 445.296 860.575 440.864 863.295 437.719C866.033 434.573 869.872 433 874.814 433C878.867 433 882.129 434.017 884.599 436.05C887.07 438.066 888.581 440.934 889.132 444.653H884.013C883.053 439.63 879.995 437.119 874.84 437.119C871.41 437.119 868.806 438.301 867.028 440.664C865.268 443.011 864.379 446.417 864.362 450.884V453.986C864.362 458.244 865.357 461.633 867.348 464.153C869.339 466.656 872.032 467.907 875.427 467.907C877.347 467.907 879.027 467.699 880.466 467.281C881.906 466.864 883.097 466.16 884.039 465.17V456.645H875.054V452.578H889.132V466.499Z" fill="#4F1313"/>
<path d="M927.28 453.934H910.456V467.386H930V471.479H905.336V433.521H929.733V437.64H910.456V449.841H927.28V453.934Z" fill="#4F1313"/>
<path d="M343.986 453.035C343.986 456.251 341.319 458.859 338.029 458.859C334.739 458.859 332.072 456.251 332.072 453.035C332.072 449.818 334.739 447.21 338.029 447.21C341.319 447.21 343.986 449.818 343.986 453.035Z" fill="#4F1313"/>
<path d="M654.75 453.035C654.75 456.251 652.083 458.859 648.793 458.859C645.503 458.859 642.836 456.251 642.836 453.035C642.836 449.818 645.503 447.21 648.793 447.21C652.083 447.21 654.75 449.818 654.75 453.035Z" fill="#4F1313"/>
<path d="M819.59 199.105C820.346 199.105 820.872 199.105 821.43 199.105C840.264 199.105 859.098 199.04 877.931 199.138C886.017 199.171 893.807 200.716 900.972 204.725C913.331 211.625 920.726 222.075 922.534 236.304C924.144 248.856 921.745 260.489 914.054 270.742C910.964 274.849 907.086 278.07 902.78 280.764C901.86 281.356 900.906 281.881 899.756 282.539C910.471 303.339 921.186 324.107 932 345.04C931.277 345.072 930.817 345.105 930.357 345.105C918.951 345.105 907.579 345.105 896.173 345.138C895.023 345.138 894.431 344.744 893.938 343.725C885.425 325.75 876.814 307.809 868.334 289.834C867.578 288.256 866.756 287.665 865.014 287.731C860.577 287.862 856.172 287.764 851.505 287.764C851.505 306.888 851.505 325.882 851.505 344.974C840.757 344.974 830.206 344.974 819.557 344.974C819.59 296.406 819.59 247.838 819.59 199.105ZM851.538 257.86C859.394 257.86 867.052 257.86 874.71 257.86C875.631 257.86 876.584 257.86 877.504 257.762C886.51 256.776 891.276 252.504 892.131 244.092C892.624 239.195 891.769 234.529 887.135 231.572C884.308 229.764 881.12 229.304 877.866 229.304C869.583 229.272 861.333 229.304 853.05 229.304C852.59 229.304 852.097 229.37 851.571 229.403C851.538 238.867 851.538 248.232 851.538 257.86Z" fill="#4F1313"/>
<path d="M699.193 199.073C709.842 199.073 720.294 199.073 730.943 199.073C730.943 218.165 730.943 237.224 730.943 256.382C744.485 256.382 757.83 256.382 771.372 256.382C771.372 237.323 771.372 218.263 771.372 199.106C782.12 199.106 792.638 199.106 803.254 199.106C803.254 247.772 803.254 296.34 803.254 345.007C792.638 345.007 782.153 345.007 771.503 345.007C771.503 325.586 771.503 306.198 771.503 286.614C757.961 286.614 744.584 286.614 731.042 286.614C731.042 306.034 731.042 325.455 731.042 344.974C720.327 344.974 709.809 344.974 699.193 344.974C699.193 296.373 699.193 247.805 699.193 199.073Z" fill="#4F1313"/>
<path d="M414.584 369.554C413.993 374.253 413.401 378.821 412.744 383.684C409.917 383.389 407.123 383.224 404.395 382.83C392.661 381.154 381.354 377.967 370.508 373.07C362.521 369.489 355.289 364.757 348.124 359.762C343.161 356.311 338.264 352.631 332.972 349.706C328.863 347.406 324.262 346.026 319.824 344.317C294.581 334.558 279.725 316.156 274.86 289.703C271.836 273.24 273.25 257.039 280.251 241.726C290.078 220.4 306.677 206.993 329.422 201.636C348.124 197.233 366.432 198.909 383.655 207.748C403.902 218.132 416.293 234.793 421.026 256.908C424.708 274.16 423.492 291.215 416.688 307.612C409.292 325.357 395.882 336.694 377.837 342.74C375.405 343.562 372.907 344.153 370.442 344.777C369.489 345.007 369.16 345.402 369.127 346.42C369.061 350.199 371.231 352.664 373.893 354.767C378.527 358.382 383.885 360.551 389.341 362.555C397.295 365.447 405.447 367.681 413.795 369.226C413.993 369.291 414.19 369.39 414.584 369.554ZM291.59 274.423C292.149 279.023 292.412 283.689 293.332 288.224C296.586 304.194 304.771 316.977 318.904 325.422C331.164 332.783 344.541 334.886 358.543 332.356C375.668 329.234 388.684 320.099 396.934 304.753C404.822 290.163 406.038 274.587 402.456 258.584C399.399 244.98 392.464 233.676 381.058 225.46C368.667 216.522 354.731 213.532 339.71 215.635C324.689 217.705 312.495 224.836 303.456 236.994C295.272 248.036 292.018 260.72 291.59 274.423Z" fill="#4F1313"/>
<path d="M593.816 279.548C593.816 295.749 593.816 311.587 593.816 327.591C617.909 327.591 641.936 327.591 666.094 327.591C666.094 333.473 666.094 339.19 666.094 345.04C635.855 345.04 605.649 345.04 575.344 345.04C575.344 296.472 575.344 247.936 575.344 199.335C605.616 199.335 635.789 199.335 666.127 199.335C666.127 205.053 666.127 210.771 666.127 216.686C642.034 216.686 617.974 216.686 593.816 216.686C593.816 232.36 593.816 247.838 593.816 263.447C614.425 263.447 634.935 263.447 655.576 263.447C655.576 268.836 655.576 274.126 655.576 279.581C635.066 279.548 614.523 279.548 593.816 279.548Z" fill="#4F1313"/>
<path d="M440.715 199.303C447.025 199.303 453.007 199.303 459.22 199.303C459.22 200.059 459.22 200.749 459.22 201.439C459.22 231.934 459.187 262.429 459.252 292.89C459.252 300.087 460.567 307.053 464.807 313.1C470.691 321.381 478.842 325.85 488.998 326.441C496.295 326.868 503.263 325.652 509.574 321.676C518.284 316.189 522.59 308.105 523.609 298.115C523.905 295.256 523.938 292.332 523.938 289.44C523.971 260.161 523.938 230.882 523.938 201.571C523.938 200.881 523.938 200.158 523.938 199.336C530.084 199.336 536.132 199.336 542.377 199.336C542.41 199.895 542.476 200.486 542.476 201.045C542.476 232.295 542.508 263.546 542.476 294.796C542.476 304.162 540.766 313.165 535.836 321.282C528.441 333.473 517.495 340.867 503.592 343.759C491.759 346.223 480.025 345.5 469.113 340.275C454.092 333.112 444.1 321.643 441.536 304.72C440.978 301.007 440.78 297.228 440.748 293.482C440.682 262.889 440.715 232.295 440.715 201.702C440.715 200.946 440.715 200.19 440.715 199.303Z" fill="#4F1313"/>
<path d="M101.61 306.527C101.282 307.677 101.052 308.663 100.723 309.616C97.732 318.948 93.0318 327.196 85.4063 333.637C78.2738 339.683 69.9252 343.166 60.722 344.481C50.5657 345.927 40.5408 345.138 31.1404 340.932C18.3874 335.214 8.69123 326.243 4.0239 312.869C2.64342 308.86 1.78884 304.522 1.65737 300.283C1.19721 285.102 1 269.92 1 254.706C1 247.936 1.29582 241.134 2.97211 234.496C5.60159 224.309 11.5179 216.39 19.6693 209.851C30.483 201.176 42.8745 198.218 56.482 199.171C66.5069 199.894 75.6772 202.819 83.4999 209.226C92.9003 216.883 98.8495 226.708 101.709 238.571C101.183 238.604 100.723 238.702 100.263 238.702C94.5766 238.702 88.8575 238.702 83.1712 238.735C82.1852 238.735 81.6921 238.472 81.2649 237.487C76.9262 227.168 69.6623 220.038 58.2569 218.033C46.0956 215.897 35.7091 219.183 27.4263 228.614C22.6603 234.036 20.8854 240.51 20.2609 247.443C19.0777 260.719 19.1434 274.028 19.6693 287.303C19.8665 292.66 20.3924 298.049 21.4113 303.306C23.0548 311.784 28.1822 318.028 35.6434 322.267C46.5886 328.478 57.6324 328.511 68.479 322.103C74.0338 318.85 77.8137 313.822 80.739 308.203C81.3635 306.987 82.0537 306.494 83.4999 306.527C88.9232 306.625 94.3465 306.56 99.7698 306.56C100.296 306.527 100.822 306.527 101.61 306.527Z" fill="#4F1313"/>
<path d="M140.79 327.624C165.112 327.624 189.139 327.624 213.265 327.624C213.265 333.44 213.265 339.158 213.265 345.007C183.026 345.007 152.787 345.007 122.416 345.007C122.416 296.374 122.416 247.805 122.416 199.106C128.497 199.106 134.545 199.106 140.757 199.106C140.79 241.858 140.79 284.609 140.79 327.624Z" fill="#4F1313"/>
<path d="M257.144 345.007C251.031 345.007 244.983 345.007 238.869 345.007C238.869 296.341 238.869 247.707 238.869 199.007C244.917 199.007 250.965 199.007 257.144 199.007C257.144 247.641 257.144 296.275 257.144 345.007Z" fill="#4F1313"/>
</svg>
