<svg width="965" height="284" viewBox="0 0 965 284" fill="none" xmlns="http://www.w3.org/2000/svg">
<path d="M126.015 126.286C128.371 148.316 155.34 193.871 129.549 192.374C118.908 191.757 105.225 181.902 96.9257 171.257C94.1051 167.639 91.7406 163.831 90.553 160.396C88.0335 153.316 88.4781 146.495 88.6634 140.898C73.8824 210.437 89.0136 273.085 89.5916 273.308C97.2192 276.261 105.687 279.719 112.228 281.054C128.575 284.392 150.353 280.117 163.128 269.851C190.298 248.018 191.071 201.545 171.965 174.424C159.424 156.624 143.153 142.432 152.524 120.928C158.152 108.014 175.499 93.2422 175.499 93.2422L152.524 101.28C152.524 101.28 150.757 93.778 138.386 101.28C126.015 108.782 106.575 120.928 106.575 120.928L126.015 126.286Z" fill="#EA001B"/>
<path d="M192.226 140.54C237.073 96.8574 237.09 66.7604 196.779 11.7876C196.779 11.7876 210.629 17.6388 225.419 28.765C237.275 37.6843 249.91 51.7476 255.431 64.9441C272.67 106.154 221.107 152.798 216.364 154.768C220.601 154.605 261.689 154.238 275.327 101.939C289.073 146.718 264.094 166.125 224.233 190.199C243.463 192.942 257.135 190.199 278.587 168.366C271.4 204.359 249.831 217.082 213.434 228.062C231.581 229.336 259.136 218.038 259.136 218.038C253.675 226.562 250.78 230.284 244.945 236.943C236.361 246.739 232.541 249.995 220.417 258.85C203.374 271.299 182.514 278.385 168.694 281.091C168.694 281.091 218.735 238.779 184.273 170.904C191.549 160.977 192.957 154.17 192.226 140.54Z" fill="#F79E1C"/>
<path d="M88.6847 140.522C43.838 96.8457 43.8204 66.7529 84.132 11.7876C84.132 11.7876 70.2816 17.638 55.4915 28.7627C43.6351 37.6807 31.0007 51.7421 25.4801 64.9368C8.24026 106.141 59.8034 152.779 64.5466 154.748C60.3101 154.586 19.2217 154.219 5.58361 101.926C-8.16236 146.699 16.817 166.103 56.6771 190.175C37.4476 192.917 23.7757 190.175 2.32311 168.344C9.51103 204.333 31.0795 217.053 67.4771 228.032C49.3299 229.307 21.775 218.009 21.775 218.009C27.2352 226.533 30.1304 230.254 35.9655 236.912C44.5498 246.707 48.3696 249.962 60.4934 258.816C77.5369 271.264 98.3967 278.349 112.217 281.054C112.217 281.054 62.1752 238.747 96.6375 170.883C89.3614 160.956 87.9533 154.151 88.6847 140.522Z" fill="#EA001B"/>
<path d="M321 156.16V49.06H360.627C369.195 49.06 376.284 50.488 381.894 53.344C387.504 56.2 391.686 60.127 394.44 65.125C397.194 70.123 398.571 75.733 398.571 81.955C398.571 87.871 397.245 93.328 394.593 98.326C391.941 103.222 387.81 107.2 382.2 110.26C376.59 113.218 369.399 114.697 360.627 114.697H340.584V156.16H321ZM340.584 98.785H359.403C366.237 98.785 371.133 97.306 374.091 94.348C377.151 91.288 378.681 87.157 378.681 81.955C378.681 76.651 377.151 72.52 374.091 69.562C371.133 66.502 366.237 64.972 359.403 64.972H340.584V98.785Z" fill="#3A3A3A"/>
<path d="M424.187 156.16V46H443.771V91.9C446.321 87.718 449.738 84.454 454.022 82.108C458.408 79.66 463.406 78.436 469.016 78.436C478.4 78.436 485.642 81.394 490.742 87.31C495.944 93.226 498.545 101.896 498.545 113.32V156.16H479.114V115.156C479.114 108.628 477.788 103.63 475.136 100.162C472.586 96.694 468.506 94.96 462.896 94.96C457.388 94.96 452.798 96.898 449.126 100.774C445.556 104.65 443.771 110.056 443.771 116.992V156.16H424.187Z" fill="#3A3A3A"/>
<path d="M564.396 157.996C557.052 157.996 550.422 156.313 544.506 152.947C538.692 149.581 534.051 144.94 530.583 139.024C527.217 133.006 525.534 126.07 525.534 118.216C525.534 110.362 527.268 103.477 530.736 97.561C534.204 91.543 538.845 86.851 544.659 83.485C550.575 80.119 557.205 78.436 564.549 78.436C571.791 78.436 578.319 80.119 584.133 83.485C590.048 86.851 594.69 91.543 598.056 97.561C601.524 103.477 603.258 110.362 603.258 118.216C603.258 126.07 601.524 133.006 598.056 139.024C594.69 144.94 590.048 149.581 584.133 152.947C578.217 156.313 571.638 157.996 564.396 157.996ZM564.396 141.013C569.496 141.013 573.933 139.126 577.707 135.352C581.48 131.476 583.367 125.764 583.367 118.216C583.367 110.668 581.48 105.007 577.707 101.233C573.933 97.357 569.547 95.419 564.549 95.419C559.347 95.419 554.859 97.357 551.085 101.233C547.413 105.007 545.577 110.668 545.577 118.216C545.577 125.764 547.413 131.476 551.085 135.352C554.859 139.126 559.296 141.013 564.396 141.013Z" fill="#3A3A3A"/>
<path d="M668.351 157.996C660.701 157.996 653.918 156.364 648.002 153.1C642.086 149.836 637.445 145.246 634.079 139.33C630.713 133.414 629.03 126.58 629.03 118.828C629.03 110.974 630.662 103.987 633.926 97.867C637.292 91.747 641.882 87.004 647.696 83.638C653.612 80.17 660.548 78.436 668.504 78.436C675.95 78.436 682.529 80.068 688.241 83.332C693.953 86.596 698.39 91.084 701.552 96.796C704.816 102.406 706.448 108.679 706.448 115.615C706.448 116.737 706.397 117.91 706.295 119.134C706.295 120.358 706.244 121.633 706.142 122.959H648.461C648.869 128.875 650.909 133.516 654.581 136.882C658.355 140.248 662.894 141.931 668.198 141.931C672.176 141.931 675.491 141.064 678.143 139.33C680.897 137.494 682.937 135.148 684.263 132.292H704.153C702.725 137.086 700.328 141.472 696.962 145.45C693.698 149.326 689.618 152.386 684.722 154.63C679.928 156.874 674.471 157.996 668.351 157.996ZM668.504 94.348C663.71 94.348 659.477 95.725 655.805 98.479C652.133 101.131 649.787 105.211 648.767 110.719H686.558C686.252 105.721 684.416 101.743 681.05 98.785C677.684 95.827 673.502 94.348 668.504 94.348Z" fill="#3A3A3A"/>
<path d="M733.629 156.16V80.272H750.918L752.448 93.124C754.794 88.636 758.16 85.066 762.546 82.414C767.034 79.762 772.287 78.436 778.305 78.436C787.689 78.436 794.982 81.394 800.184 87.31C805.386 93.226 807.987 101.896 807.987 113.32V156.16H788.403V115.156C788.403 108.628 787.077 103.63 784.425 100.162C781.773 96.694 777.642 94.96 772.032 94.96C766.524 94.96 761.985 96.898 758.415 100.774C754.947 104.65 753.213 110.056 753.213 116.992V156.16H733.629Z" fill="#3A3A3A"/>
<path d="M847.981 68.491C844.411 68.491 841.453 67.42 839.107 65.278C836.863 63.136 835.741 60.433 835.741 57.169C835.741 53.905 836.863 51.253 839.107 49.213C841.453 47.071 844.411 46 847.981 46C851.551 46 854.458 47.071 856.702 49.213C859.048 51.253 860.221 53.905 860.221 57.169C860.221 60.433 859.048 63.136 856.702 65.278C854.458 67.42 851.551 68.491 847.981 68.491ZM838.189 156.16V80.272H857.773V156.16H838.189Z" fill="#3A3A3A"/>
<path d="M881.733 156.16L909.273 118.216L881.733 80.272H902.694L921.972 107.2L941.097 80.272H962.211L934.518 118.216L962.211 156.16H941.097L921.972 129.232L902.694 156.16H881.733Z" fill="#3A3A3A"/>
<path d="M321 227.16V196.36H330.988C334.596 196.36 337.559 196.991 339.876 198.252C342.223 199.513 343.953 201.303 345.068 203.62C346.212 205.908 346.784 208.636 346.784 211.804C346.784 214.943 346.212 217.671 345.068 219.988C343.953 222.276 342.223 224.051 339.876 225.312C337.559 226.544 334.596 227.16 330.988 227.16H321ZM325.664 223.2H330.812C333.599 223.2 335.799 222.745 337.412 221.836C339.055 220.927 340.228 219.621 340.932 217.92C341.665 216.219 342.032 214.18 342.032 211.804C342.032 209.428 341.665 207.375 340.932 205.644C340.228 203.913 339.055 202.593 337.412 201.684C335.799 200.745 333.599 200.276 330.812 200.276H325.664V223.2Z" fill="#3A3A3A"/>
<path d="M358.802 201.2C357.922 201.2 357.188 200.936 356.602 200.408C356.044 199.851 355.766 199.161 355.766 198.34C355.766 197.519 356.044 196.844 356.602 196.316C357.188 195.759 357.922 195.48 358.802 195.48C359.682 195.48 360.4 195.759 360.958 196.316C361.544 196.844 361.838 197.519 361.838 198.34C361.838 199.161 361.544 199.851 360.958 200.408C360.4 200.936 359.682 201.2 358.802 201.2ZM356.47 227.16V205.336H361.134V227.16H356.47Z" fill="#3A3A3A"/>
<path d="M380.402 227.688C377.645 227.688 375.372 227.013 373.582 225.664C371.793 224.315 370.766 222.525 370.502 220.296H375.21C375.445 221.293 376.002 222.159 376.882 222.892C377.762 223.596 378.921 223.948 380.358 223.948C381.766 223.948 382.793 223.655 383.438 223.068C384.084 222.481 384.406 221.807 384.406 221.044C384.406 219.929 383.952 219.181 383.042 218.8C382.162 218.389 380.93 218.023 379.346 217.7C378.114 217.436 376.882 217.084 375.65 216.644C374.448 216.204 373.436 215.588 372.614 214.796C371.822 213.975 371.426 212.875 371.426 211.496C371.426 209.589 372.16 208.005 373.626 206.744C375.093 205.453 377.146 204.808 379.786 204.808C382.221 204.808 384.186 205.395 385.682 206.568C387.208 207.741 388.102 209.399 388.366 211.54H383.878C383.732 210.601 383.292 209.868 382.558 209.34C381.854 208.812 380.901 208.548 379.698 208.548C378.525 208.548 377.616 208.797 376.97 209.296C376.325 209.765 376.002 210.381 376.002 211.144C376.002 211.907 376.442 212.508 377.322 212.948C378.232 213.388 379.42 213.784 380.886 214.136C382.353 214.459 383.702 214.84 384.934 215.28C386.196 215.691 387.208 216.307 387.97 217.128C388.733 217.949 389.114 219.152 389.114 220.736C389.144 222.731 388.366 224.388 386.782 225.708C385.228 227.028 383.101 227.688 380.402 227.688Z" fill="#3A3A3A"/>
<path d="M408.946 227.688C406.805 227.688 404.883 227.204 403.182 226.236C401.51 225.268 400.19 223.933 399.222 222.232C398.283 220.501 397.814 218.507 397.814 216.248C397.814 213.989 398.283 212.009 399.222 210.308C400.19 208.577 401.51 207.228 403.182 206.26C404.883 205.292 406.805 204.808 408.946 204.808C411.645 204.808 413.903 205.512 415.722 206.92C417.57 208.328 418.758 210.235 419.286 212.64H414.402C414.109 211.437 413.463 210.499 412.466 209.824C411.469 209.149 410.295 208.812 408.946 208.812C407.802 208.812 406.746 209.105 405.778 209.692C404.81 210.249 404.033 211.085 403.446 212.2C402.859 213.285 402.566 214.635 402.566 216.248C402.566 217.861 402.859 219.225 403.446 220.34C404.033 221.425 404.81 222.261 405.778 222.848C406.746 223.435 407.802 223.728 408.946 223.728C410.295 223.728 411.469 223.391 412.466 222.716C413.463 222.041 414.109 221.088 414.402 219.856H419.286C418.787 222.203 417.614 224.095 415.766 225.532C413.918 226.969 411.645 227.688 408.946 227.688Z" fill="#3A3A3A"/>
<path d="M438.952 227.688C436.87 227.688 434.992 227.219 433.32 226.28C431.678 225.312 430.372 223.977 429.404 222.276C428.436 220.545 427.952 218.536 427.952 216.248C427.952 213.96 428.436 211.965 429.404 210.264C430.402 208.533 431.736 207.199 433.408 206.26C435.08 205.292 436.943 204.808 438.996 204.808C441.079 204.808 442.942 205.292 444.584 206.26C446.256 207.199 447.576 208.533 448.544 210.264C449.542 211.965 450.04 213.96 450.04 216.248C450.04 218.536 449.542 220.545 448.544 222.276C447.576 223.977 446.256 225.312 444.584 226.28C442.912 227.219 441.035 227.688 438.952 227.688ZM438.952 223.684C440.067 223.684 441.094 223.405 442.032 222.848C443 222.291 443.778 221.469 444.364 220.384C444.951 219.269 445.244 217.891 445.244 216.248C445.244 214.605 444.951 213.241 444.364 212.156C443.807 211.041 443.044 210.205 442.076 209.648C441.138 209.091 440.111 208.812 438.996 208.812C437.882 208.812 436.84 209.091 435.872 209.648C434.934 210.205 434.171 211.041 433.584 212.156C432.998 213.241 432.704 214.605 432.704 216.248C432.704 217.891 432.998 219.269 433.584 220.384C434.171 221.469 434.934 222.291 435.872 222.848C436.811 223.405 437.838 223.684 438.952 223.684Z" fill="#3A3A3A"/>
<path d="M464.483 227.16L456.299 205.336H461.183L467.255 222.716L473.327 205.336H478.167L470.027 227.16H464.483Z" fill="#3A3A3A"/>
<path d="M495.491 227.688C493.349 227.688 491.443 227.219 489.771 226.28C488.128 225.312 486.837 223.977 485.899 222.276C484.96 220.575 484.491 218.595 484.491 216.336C484.491 214.048 484.945 212.039 485.855 210.308C486.793 208.577 488.084 207.228 489.727 206.26C491.399 205.292 493.335 204.808 495.535 204.808C497.676 204.808 499.539 205.292 501.123 206.26C502.707 207.199 503.939 208.46 504.819 210.044C505.699 211.628 506.139 213.373 506.139 215.28C506.139 215.573 506.124 215.896 506.095 216.248C506.095 216.571 506.08 216.937 506.051 217.348H489.067C489.213 219.46 489.903 221.073 491.135 222.188C492.396 223.273 493.848 223.816 495.491 223.816C496.811 223.816 497.911 223.523 498.791 222.936C499.7 222.32 500.375 221.499 500.815 220.472H505.479C504.892 222.525 503.719 224.241 501.959 225.62C500.228 226.999 498.072 227.688 495.491 227.688ZM495.491 208.636C493.936 208.636 492.557 209.105 491.355 210.044C490.152 210.953 489.419 212.332 489.155 214.18H501.475C501.387 212.479 500.785 211.129 499.671 210.132C498.556 209.135 497.163 208.636 495.491 208.636Z" fill="#3A3A3A"/>
<path d="M515.378 227.16V205.336H519.558L519.954 209.472C520.717 208.035 521.773 206.905 523.122 206.084C524.501 205.233 526.158 204.808 528.094 204.808V209.692H526.818C525.527 209.692 524.369 209.912 523.342 210.352C522.345 210.763 521.538 211.481 520.922 212.508C520.335 213.505 520.042 214.899 520.042 216.688V227.16H515.378Z" fill="#3A3A3A"/>
<path d="M553.827 216.424C552.947 216.424 552.213 216.145 551.627 215.588C551.069 215.001 550.791 214.312 550.791 213.52C550.791 212.699 551.069 212.009 551.627 211.452C552.213 210.865 552.947 210.572 553.827 210.572C554.707 210.572 555.425 210.865 555.983 211.452C556.54 212.009 556.819 212.699 556.819 213.52C556.819 214.312 556.54 215.001 555.983 215.588C555.425 216.145 554.707 216.424 553.827 216.424Z" fill="#3A3A3A"/>
<path d="M581.58 227.16V196.36H591.568C595.176 196.36 598.138 196.991 600.456 198.252C602.802 199.513 604.533 201.303 605.648 203.62C606.792 205.908 607.364 208.636 607.364 211.804C607.364 214.943 606.792 217.671 605.648 219.988C604.533 222.276 602.802 224.051 600.456 225.312C598.138 226.544 595.176 227.16 591.568 227.16H581.58ZM586.244 223.2H591.392C594.178 223.2 596.378 222.745 597.992 221.836C599.634 220.927 600.808 219.621 601.512 217.92C602.245 216.219 602.612 214.18 602.612 211.804C602.612 209.428 602.245 207.375 601.512 205.644C600.808 203.913 599.634 202.593 597.992 201.684C596.378 200.745 594.178 200.276 591.392 200.276H586.244V223.2Z" fill="#3A3A3A"/>
<path d="M626.949 227.688C624.808 227.688 622.901 227.219 621.229 226.28C619.587 225.312 618.296 223.977 617.357 222.276C616.419 220.575 615.949 218.595 615.949 216.336C615.949 214.048 616.404 212.039 617.313 210.308C618.252 208.577 619.543 207.228 621.185 206.26C622.857 205.292 624.793 204.808 626.993 204.808C629.134 204.808 630.997 205.292 632.581 206.26C634.165 207.199 635.397 208.46 636.277 210.044C637.157 211.628 637.597 213.373 637.597 215.28C637.597 215.573 637.582 215.896 637.553 216.248C637.553 216.571 637.539 216.937 637.509 217.348H620.525C620.672 219.46 621.361 221.073 622.593 222.188C623.854 223.273 625.307 223.816 626.949 223.816C628.269 223.816 629.369 223.523 630.249 222.936C631.159 222.32 631.833 221.499 632.273 220.472H636.937C636.35 222.525 635.177 224.241 633.417 225.62C631.687 226.999 629.531 227.688 626.949 227.688ZM626.949 208.636C625.395 208.636 624.016 209.105 622.813 210.044C621.611 210.953 620.877 212.332 620.613 214.18H632.933C632.845 212.479 632.244 211.129 631.129 210.132C630.015 209.135 628.621 208.636 626.949 208.636Z" fill="#3A3A3A"/>
<path d="M646.837 236.84V205.336H651.017L651.501 208.724C652.205 207.697 653.173 206.788 654.405 205.996C655.637 205.204 657.221 204.808 659.157 204.808C661.269 204.808 663.131 205.307 664.745 206.304C666.358 207.301 667.619 208.665 668.529 210.396C669.467 212.127 669.937 214.092 669.937 216.292C669.937 218.492 669.467 220.457 668.529 222.188C667.619 223.889 666.358 225.239 664.745 226.236C663.131 227.204 661.254 227.688 659.113 227.688C657.411 227.688 655.901 227.351 654.581 226.676C653.29 226.001 652.263 225.048 651.501 223.816V236.84H646.837ZM658.321 223.64C660.315 223.64 661.958 222.965 663.249 221.616C664.539 220.237 665.185 218.448 665.185 216.248C665.185 214.811 664.891 213.535 664.305 212.42C663.718 211.305 662.911 210.44 661.885 209.824C660.858 209.179 659.67 208.856 658.321 208.856C656.326 208.856 654.683 209.545 653.393 210.924C652.131 212.303 651.501 214.077 651.501 216.248C651.501 218.448 652.131 220.237 653.393 221.616C654.683 222.965 656.326 223.64 658.321 223.64Z" fill="#3A3A3A"/>
<path d="M679.381 227.16V195.48H684.045V227.16H679.381Z" fill="#3A3A3A"/>
<path d="M704.559 227.688C702.477 227.688 700.599 227.219 698.927 226.28C697.285 225.312 695.979 223.977 695.011 222.276C694.043 220.545 693.559 218.536 693.559 216.248C693.559 213.96 694.043 211.965 695.011 210.264C696.009 208.533 697.343 207.199 699.015 206.26C700.687 205.292 702.55 204.808 704.603 204.808C706.686 204.808 708.549 205.292 710.191 206.26C711.863 207.199 713.183 208.533 714.151 210.264C715.149 211.965 715.647 213.96 715.647 216.248C715.647 218.536 715.149 220.545 714.151 222.276C713.183 223.977 711.863 225.312 710.191 226.28C708.519 227.219 706.642 227.688 704.559 227.688ZM704.559 223.684C705.674 223.684 706.701 223.405 707.639 222.848C708.607 222.291 709.385 221.469 709.971 220.384C710.558 219.269 710.851 217.891 710.851 216.248C710.851 214.605 710.558 213.241 709.971 212.156C709.414 211.041 708.651 210.205 707.683 209.648C706.745 209.091 705.718 208.812 704.603 208.812C703.489 208.812 702.447 209.091 701.479 209.648C700.541 210.205 699.778 211.041 699.191 212.156C698.605 213.241 698.311 214.605 698.311 216.248C698.311 217.891 698.605 219.269 699.191 220.384C699.778 221.469 700.541 222.291 701.479 222.848C702.418 223.405 703.445 223.684 704.559 223.684Z" fill="#3A3A3A"/>
<path d="M725.796 236.84L731.032 225.356H729.756L721.132 205.336H726.192L732.88 221.484L739.876 205.336H744.804L730.724 236.84H725.796Z" fill="#3A3A3A"/>
<path d="M770.372 216.424C769.492 216.424 768.759 216.145 768.172 215.588C767.615 215.001 767.336 214.312 767.336 213.52C767.336 212.699 767.615 212.009 768.172 211.452C768.759 210.865 769.492 210.572 770.372 210.572C771.252 210.572 771.971 210.865 772.528 211.452C773.085 212.009 773.364 212.699 773.364 213.52C773.364 214.312 773.085 215.001 772.528 215.588C771.971 216.145 771.252 216.424 770.372 216.424Z" fill="#3A3A3A"/>
<path d="M798.125 227.16V196.36H817.705V200.144H802.789V209.736H816.385V213.432H802.789V223.376H817.705V227.16H798.125Z" fill="#3A3A3A"/>
<path d="M827.486 227.16V205.336H831.622L831.974 209.164C832.648 207.815 833.631 206.759 834.922 205.996C836.242 205.204 837.752 204.808 839.454 204.808C842.094 204.808 844.162 205.629 845.658 207.272C847.183 208.915 847.946 211.364 847.946 214.62V227.16H843.326V215.104C843.326 210.88 841.595 208.768 838.134 208.768C836.403 208.768 834.966 209.384 833.822 210.616C832.707 211.848 832.15 213.608 832.15 215.896V227.16H827.486Z" fill="#3A3A3A"/>
<path d="M866.771 220.472C865.627 220.472 864.571 220.34 863.603 220.076L861.711 221.924C862.034 222.129 862.429 222.305 862.899 222.452C863.368 222.599 864.028 222.731 864.879 222.848C865.729 222.965 866.888 223.083 868.355 223.2C871.259 223.464 873.356 224.168 874.647 225.312C875.938 226.427 876.583 227.923 876.583 229.8C876.583 231.091 876.231 232.308 875.527 233.452C874.852 234.625 873.781 235.564 872.315 236.268C870.878 237.001 869.029 237.368 866.771 237.368C863.72 237.368 861.242 236.781 859.335 235.608C857.458 234.464 856.519 232.719 856.519 230.372C856.519 229.463 856.753 228.553 857.223 227.644C857.721 226.764 858.499 225.928 859.555 225.136C858.939 224.872 858.396 224.593 857.927 224.3C857.487 223.977 857.091 223.655 856.739 223.332V222.276L860.523 218.404C858.821 216.937 857.971 215.016 857.971 212.64C857.971 211.203 858.308 209.897 858.983 208.724C859.687 207.521 860.699 206.568 862.019 205.864C863.339 205.16 864.923 204.808 866.771 204.808C868.003 204.808 869.147 204.984 870.203 205.336H878.343V208.416L874.471 208.636C875.175 209.839 875.527 211.173 875.527 212.64C875.527 214.107 875.175 215.427 874.471 216.6C873.796 217.773 872.799 218.712 871.479 219.416C870.188 220.12 868.619 220.472 866.771 220.472ZM866.771 216.82C868.12 216.82 869.206 216.468 870.027 215.764C870.878 215.031 871.303 214.004 871.303 212.684C871.303 211.335 870.878 210.308 870.027 209.604C869.206 208.9 868.12 208.548 866.771 208.548C865.392 208.548 864.277 208.9 863.427 209.604C862.605 210.308 862.195 211.335 862.195 212.684C862.195 214.004 862.605 215.031 863.427 215.764C864.277 216.468 865.392 216.82 866.771 216.82ZM860.919 229.932C860.919 231.193 861.476 232.132 862.591 232.748C863.706 233.393 865.099 233.716 866.771 233.716C868.384 233.716 869.69 233.364 870.687 232.66C871.684 231.985 872.183 231.076 872.183 229.932C872.183 229.081 871.846 228.348 871.171 227.732C870.496 227.145 869.22 226.779 867.343 226.632C865.935 226.544 864.688 226.412 863.603 226.236C862.576 226.793 861.872 227.395 861.491 228.04C861.109 228.685 860.919 229.316 860.919 229.932Z" fill="#3A3A3A"/>
<path d="M894.295 227.688C892.447 227.688 890.922 227.38 889.719 226.764C888.516 226.148 887.622 225.341 887.035 224.344C886.448 223.317 886.155 222.203 886.155 221C886.155 218.888 886.976 217.216 888.619 215.984C890.262 214.752 892.608 214.136 895.659 214.136H901.379V213.74C901.379 212.039 900.91 210.763 899.971 209.912C899.062 209.061 897.874 208.636 896.407 208.636C895.116 208.636 893.987 208.959 893.019 209.604C892.08 210.22 891.508 211.144 891.303 212.376H886.639C886.786 210.792 887.314 209.443 888.223 208.328C889.162 207.184 890.335 206.319 891.743 205.732C893.18 205.116 894.75 204.808 896.451 204.808C899.502 204.808 901.863 205.615 903.535 207.228C905.207 208.812 906.043 210.983 906.043 213.74V227.16H901.995L901.599 223.42C900.983 224.623 900.088 225.635 898.915 226.456C897.742 227.277 896.202 227.688 894.295 227.688ZM895.219 223.904C896.48 223.904 897.536 223.611 898.387 223.024C899.267 222.408 899.942 221.601 900.411 220.604C900.91 219.607 901.218 218.507 901.335 217.304H896.143C894.295 217.304 892.975 217.627 892.183 218.272C891.42 218.917 891.039 219.724 891.039 220.692C891.039 221.689 891.406 222.481 892.139 223.068C892.902 223.625 893.928 223.904 895.219 223.904Z" fill="#3A3A3A"/>
<path d="M924.813 220.472C923.669 220.472 922.613 220.34 921.645 220.076L919.753 221.924C920.076 222.129 920.472 222.305 920.941 222.452C921.41 222.599 922.07 222.731 922.921 222.848C923.772 222.965 924.93 223.083 926.397 223.2C929.301 223.464 931.398 224.168 932.689 225.312C933.98 226.427 934.625 227.923 934.625 229.8C934.625 231.091 934.273 232.308 933.569 233.452C932.894 234.625 931.824 235.564 930.357 236.268C928.92 237.001 927.072 237.368 924.813 237.368C921.762 237.368 919.284 236.781 917.377 235.608C915.5 234.464 914.561 232.719 914.561 230.372C914.561 229.463 914.796 228.553 915.265 227.644C915.764 226.764 916.541 225.928 917.597 225.136C916.981 224.872 916.438 224.593 915.969 224.3C915.529 223.977 915.133 223.655 914.781 223.332V222.276L918.565 218.404C916.864 216.937 916.013 215.016 916.013 212.64C916.013 211.203 916.35 209.897 917.025 208.724C917.729 207.521 918.741 206.568 920.061 205.864C921.381 205.16 922.965 204.808 924.813 204.808C926.045 204.808 927.189 204.984 928.245 205.336H936.385V208.416L932.513 208.636C933.217 209.839 933.569 211.173 933.569 212.64C933.569 214.107 933.217 215.427 932.513 216.6C931.838 217.773 930.841 218.712 929.521 219.416C928.23 220.12 926.661 220.472 924.813 220.472ZM924.813 216.82C926.162 216.82 927.248 216.468 928.069 215.764C928.92 215.031 929.345 214.004 929.345 212.684C929.345 211.335 928.92 210.308 928.069 209.604C927.248 208.9 926.162 208.548 924.813 208.548C923.434 208.548 922.32 208.9 921.469 209.604C920.648 210.308 920.237 211.335 920.237 212.684C920.237 214.004 920.648 215.031 921.469 215.764C922.32 216.468 923.434 216.82 924.813 216.82ZM918.961 229.932C918.961 231.193 919.518 232.132 920.633 232.748C921.748 233.393 923.141 233.716 924.813 233.716C926.426 233.716 927.732 233.364 928.729 232.66C929.726 231.985 930.225 231.076 930.225 229.932C930.225 229.081 929.888 228.348 929.213 227.732C928.538 227.145 927.262 226.779 925.385 226.632C923.977 226.544 922.73 226.412 921.645 226.236C920.618 226.793 919.914 227.395 919.533 228.04C919.152 228.685 918.961 229.316 918.961 229.932Z" fill="#3A3A3A"/>
<path d="M954.294 227.688C952.152 227.688 950.246 227.219 948.574 226.28C946.931 225.312 945.64 223.977 944.702 222.276C943.763 220.575 943.294 218.595 943.294 216.336C943.294 214.048 943.748 212.039 944.658 210.308C945.596 208.577 946.887 207.228 948.53 206.26C950.202 205.292 952.138 204.808 954.338 204.808C956.479 204.808 958.342 205.292 959.926 206.26C961.51 207.199 962.742 208.46 963.622 210.044C964.502 211.628 964.942 213.373 964.942 215.28C964.942 215.573 964.927 215.896 964.898 216.248C964.898 216.571 964.883 216.937 964.854 217.348H947.87C948.016 219.46 948.706 221.073 949.938 222.188C951.199 223.273 952.651 223.816 954.294 223.816C955.614 223.816 956.714 223.523 957.594 222.936C958.503 222.32 959.178 221.499 959.618 220.472H964.282C963.695 222.525 962.522 224.241 960.762 225.62C959.031 226.999 956.875 227.688 954.294 227.688ZM954.294 208.636C952.739 208.636 951.36 209.105 950.158 210.044C948.955 210.953 948.222 212.332 947.958 214.18H960.278C960.19 212.479 959.588 211.129 958.474 210.132C957.359 209.135 955.966 208.636 954.294 208.636Z" fill="#3A3A3A"/>
</svg>
