<?xml version="1.0" encoding="utf-8"?>
<!-- Generator: Adobe Illustrator 24.0.0, SVG Export Plug-In . SVG Version: 6.00 Build 0)  -->
<svg version="1.1" xmlns="http://www.w3.org/2000/svg" xmlns:xlink="http://www.w3.org/1999/xlink" x="0px" y="0px"
    viewBox="0 0 45 45" style="enable-background:new 0 0 45 45;" xml:space="preserve">
    <defs>
        <style><![CDATA[
            .sprite { display: none; }
            .sprite:target { display: inline; }
            .primary-fill{ fill: #118cf5;}
        ]]></style>
    </defs>
    <g id="home" class="sprite" fill-rule="nonzero">
        <path d="M39.6962121,17.5808557 C40.058415,17.9115301 40.1015344,18.4902103 39.7996986,18.8759971 C39.4892389,19.2617839 38.9459345,19.3077109 38.5837316,18.9770365 L30.6238904,11.7573121 L26.6482818,8.15663524 L19.9992704,2.12182741 L1.42343308,18.9770365 C1.25957936,19.1240029 1.06123013,19.1974861 0.862880887,19.1974861 C0.62141225,19.1974861 0.379943613,19.0872613 0.207466015,18.8759971 C-0.102993661,18.4902103 -0.0598742617,17.9115301 0.302328694,17.5808557 L19.4387182,0.220449601 C19.7664256,-0.0734832004 20.240739,-0.0734832004 20.5598226,0.220449601 L26.4671803,5.57553783 L26.4671803,1.94730481 C26.4671803,1.43292241 26.8552549,0.982837805 27.3295683,0.982837805 L31.4517829,0.982837805 C31.9347202,0.982837805 32.3400425,1.44210781 32.3400425,1.94730481 L32.3400425,10.7193619 C32.3400425,10.7744743 32.3227948,10.8204013 32.3141709,10.8663283 L39.6962121,17.5808557 Z M30.6066427,9.31399565 L30.6066427,2.81991781 L28.1919563,2.81991781 L28.1919563,7.14624124 L30.6066427,9.31399565 Z M7.17556097,38 C6.70124758,38 6.28730134,37.5591008 6.28730134,37.0630892 L6.28730134,19.8404641 L5.20931636,20.8324873 C4.8471134,21.1631617 4.32105673,21.1172347 4.01059705,20.7314479 C3.70013737,20.3456611 3.74325677,19.7669809 4.10545973,19.4363065 L6.52876998,17.2318105 L19.4387182,5.48368383 C19.7664256,5.18975103 20.240739,5.18975103 20.5598226,5.48368383 L33.4611469,17.2318105 L35.8844572,19.4363065 C36.2466601,19.7669809 36.2984034,20.3456611 35.9879437,20.7314479 C35.8154661,20.9427121 35.5739975,21.0529369 35.3325288,21.0529369 C35.1341796,21.0529369 34.9444542,20.9794537 34.7806005,20.8324873 L33.7026155,19.8404641 L33.7026155,37.0539038 C33.7026155,37.5591008 33.2886693,38 32.8143559,38 L7.17556097,38 Z M23.4488223,36.16292 L23.4488223,26.2426879 L16.5497184,26.2426879 L16.5497184,36.16292 L23.4488223,36.16292 Z M8.01207732,18.2697607 L8.01207732,36.16292 L14.8249424,36.16292 L14.8249424,25.3517041 C14.8249424,24.8465071 15.1785215,24.4056079 15.6528349,24.4056079 L24.3457058,24.4056079 C24.8200192,24.4056079 25.1735983,24.8465071 25.1735983,25.3517041 L25.1735983,36.16292 L31.9864634,36.16292 L31.9864634,18.2697607 L19.9992704,7.39424704 L8.01207732,18.2697607 Z" class="border-fill" fill="#222222"></path>
        <path d="M30.6,9.3 L28.195092,7.13026874 L28.195092,2.8 L30.6,2.8 L30.6,9.3 Z M23.45,36.15 L16.55,36.15 L16.55,26.25 L23.45,26.25 L23.45,36.15 Z" class="primary-fill" ></path>
    </g>
</svg>    